Coordinates
version=1
nRows=10
nColumns=34
inDegrees=yes

Units are S.I. units (second, meters, Newtons, ...)
If the header above contains a line with 'inDegrees', this indicates whether rotational values are in degrees (yes) or radians (no).

endheader
time	pelvis_tilt	pelvis_list	pelvis_rotation	pelvis_tx	pelvis_ty	pelvis_tz	hip_flexion_r	hip_adduction_r	hip_rotation_r	knee_angle_r	ankle_angle_r	subtalar_angle_r	mtp_angle_r	hip_flexion_l	hip_adduction_l	hip_rotation_l	knee_angle_l	ankle_angle_l	subtalar_angle_l	mtp_angle_l	lumbar_extension	lumbar_bending	lumbar_rotation	arm_flex_r	arm_add_r	arm_rot_r	elbow_flex_r	pro_sup_r	arm_flex_l	arm_add_l	arm_rot_l	elbow_flex_l	pro_sup_l
      3.85000000	      8.55821222	    -10.43490151	    -58.72237407	      0.40908174	      1.11517860	      0.27964292	     -7.25552653	      0.42756548	     -8.48810770	     10.20015525	     10.08651262	     -6.35888848	      0.00000000	     45.71799452	     -3.54903318	      5.81640905	    113.38654047	      7.81632219	      0.69028892	      0.00000000	    -14.75617711	     10.39169974	      2.11107074	     11.51245300	     -8.34535857	     25.43559351	     18.37956503	    113.52400539	     12.94491609	     -7.76525675	     30.11007882	     32.25433541	    111.82564019
      3.86666670	      8.87931020	    -10.35974814	    -59.07578650	      0.40739527	      1.11613056	      0.28021979	     -7.64489950	      0.17828667	     -8.24324791	      9.53277186	      9.80993710	     -6.06636634	      0.00000000	     46.66672130	     -3.39433260	      6.03706333	    115.81846372	      7.27473978	      1.28996290	      0.00000000	    -14.88764489	     10.11312175	      2.24582184	     11.35069187	     -8.30164570	     25.39110061	     18.37491481	    113.52670042	     12.92815205	     -8.13308847	     30.36805691	     32.91506441	    111.91151733
      3.88333330	      9.14529427	    -10.31261995	    -59.40301975	      0.40595814	      1.11696187	      0.28101245	     -8.05115381	     -0.01030247	     -8.00426545	      8.86175942	      9.51031277	     -5.82861501	      0.00000000	     47.48454661	     -3.30890567	      6.30126535	    118.00262441	      6.80391177	      1.98327362	      0.00000000	    -14.95220180	      9.87672937	      2.34131647	     11.16653771	     -8.27626713	     25.36802488	     18.34477553	    113.53367545	     12.86796166	     -8.56796703	     30.74266059	     33.68636392	    112.01968004
      3.90000000	      9.23307880	    -10.39285951	    -59.65169115	      0.40437865	      1.11768632	      0.28203912	     -8.48859015	      0.08940721	     -7.75284068	      8.18351008	      9.10293586	     -5.89362452	      0.00000000	     48.20053816	     -3.44080709	      6.80751935	    119.99841442	      6.72487808	      2.97216642	      0.00000000	    -15.03369808	      9.84275329	      2.28054030	     11.00377294	     -8.18683404	     25.36234861	     18.33382377	    113.55727180	     12.78830543	     -9.22370393	     31.57715987	     34.72677669	    112.24336252
      3.91666670	      9.52787312	    -10.31956439	    -59.96827497	      0.40347368	      1.11862234	      0.28282955	     -8.77435145	     -0.20428328	     -7.54661428	      7.76345852	      8.83261987	     -5.73681122	      0.00000000	     48.74639963	     -3.26143119	      6.93325194	    121.62695560	      6.25840838	      3.53025982	      0.00000000	    -15.06369130	      9.56632276	      2.45349452	     10.73642924	     -8.28866569	     25.38692990	     18.21648628	    113.56976296	     12.83815866	     -9.38467580	     31.76612224	     35.07745372	    112.29865093
      3.93333330	      9.76476266	    -10.28075716	    -60.25252569	      0.40253072	      1.11930317	      0.28364758	     -9.01911175	     -0.40881180	     -7.31884201	      7.42896029	      8.64442123	     -5.63497744	      0.00000000	     49.22018399	     -3.21026075	      7.08553438	    123.05452212	      5.90728398	      4.29718540	      0.00000000	    -15.11375303	      9.32910433	      2.53655238	     10.47815185	     -8.36501647	     25.42503595	     18.16735875	    113.58443306	     12.81919297	     -9.69992618	     32.09609594	     35.65527771	    112.38204469
      3.95000000	      9.94494169	    -10.27240519	    -60.48344611	      0.40163761	      1.11984485	      0.28446253	     -9.17814158	     -0.54605223	     -7.12067617	      7.27452019	      8.52371067	     -5.61844651	      0.00000000	     49.63521878	     -3.22733938	      7.28643497	    124.28726310	      5.76100910	      5.19294993	      0.00000000	    -15.16952371	      9.13121747	      2.58518864	     10.22797544	     -8.45483014	     25.46442021	     18.14544692	    113.59814413	     12.80310424	    -10.01697730	     32.49221165	     36.28644371	    112.47776682
      3.96666670	     10.12772656	    -10.28058037	    -60.63669455	      0.40092241	      1.12047071	      0.28493371	     -9.26955220	     -0.71123857	     -7.00466283	      7.26498771	      8.45040552	     -5.54724316	      0.00000000	     49.96433098	     -3.09342121	      7.42857373	    125.29383213	      5.66216949	      5.52216600	      0.00000000	    -15.28852207	      8.95321017	      2.66807160	     10.00051672	     -8.57504493	     25.47762162	     18.05262680	    113.60202183	     12.92583970	    -10.10512862	     32.55738066	     36.54248936	    112.49967455
      3.98333330	     10.24082230	    -10.22947053	    -60.84006460	      0.40011908	      1.12075950	      0.28591428	     -9.22317360	     -0.85044836	     -6.89412351	      7.38902064	      8.55698289	     -5.59779964	      0.00000000	     50.34141391	     -3.16797922	      7.58557958	    126.12768407	      5.49559800	      6.70970634	      0.00000000	    -15.26927627	      8.77903535	      2.64216408	      9.72214052	     -8.68568150	     25.49321986	     18.14482984	    113.60816470	     12.78688576	    -10.47132472	     32.94103402	     37.19041322	    112.59405665
      4.00000000	     10.29350748	    -10.21372855	    -60.97392003	      0.39966812	      1.12095429	      0.28658258	     -9.14162291	     -0.92792633	     -6.79352052	      7.60499612	      8.67200628	     -5.59886914	      0.00000000	     50.65227992	     -3.13008618	      7.76305280	    126.77443924	      5.51105600	      7.49835334	      0.00000000	    -15.28770422	      8.71185548	      2.72528484	      9.41780194	     -8.88875030	     25.47407741	     18.12249765	    113.60608909	     12.77396128	    -10.62099355	     33.16427027	     37.64008108	    112.66307963
